<svg width="147" height="35" viewBox="0 0 147 35" fill="none" xmlns="http://www.w3.org/2000/svg">
<path d="M143.345 15.2596V10.0387C143.345 8.98375 143.614 8.2043 144.145 7.69363C144.682 7.18967 145.401 6.93434 146.302 6.93434C146.409 6.93434 146.523 6.94106 146.637 6.9545C146.752 6.96794 146.873 6.98809 147 7.01497V4.03157C145.959 4.03157 145.072 4.23315 144.346 4.63631C143.62 5.03947 143.09 5.63078 142.76 6.41695L143.19 7.34422V4.19283H140.126V15.2596H143.345ZM133.246 14.8565C133.864 14.4802 134.287 13.9494 134.522 13.264L134.025 11.7656C133.851 12.2695 133.541 12.6525 133.111 12.8944C132.681 13.143 132.191 13.264 131.64 13.264C131.089 13.264 130.659 13.143 130.336 12.9011C130.014 12.6593 129.852 12.3367 129.852 11.9268C129.852 11.5573 129.994 11.2482 130.276 10.9996C130.558 10.7509 131.075 10.63 131.828 10.63H134.422V8.78217H131.499C130.363 8.78217 129.443 8.91656 128.744 9.19205C128.045 9.46754 127.534 9.85055 127.212 10.3545C126.889 10.8585 126.728 11.4296 126.728 12.0747C126.728 12.7063 126.896 13.2774 127.232 13.7814C127.568 14.2853 128.045 14.6885 128.663 14.9842C129.281 15.2798 130.014 15.4276 130.86 15.4276C131.835 15.4276 132.628 15.2328 133.246 14.8565ZM137.237 15.2596V8.94343C137.237 7.25687 136.773 6.01378 135.839 5.2209C134.905 4.42801 133.595 4.03157 131.909 4.03157C131.028 4.03157 130.168 4.1458 129.315 4.36754C128.462 4.58927 127.736 4.92524 127.138 5.362L128.267 7.60628C128.677 7.29047 129.167 7.04185 129.738 6.85371C130.309 6.66556 130.887 6.57821 131.479 6.57821C132.345 6.57821 132.984 6.77307 133.4 7.15608C133.817 7.53908 134.025 8.07663 134.025 8.76201V12.6257L134.234 13.096V15.2529H137.237V15.2596ZM124.464 15.2596V-6.10352e-05H121.258V15.2596H124.464ZM118.275 15.2596V-6.10352e-05H115.063V15.2596H118.275ZM110.232 14.964C110.998 14.6549 111.636 14.2114 112.147 13.6403L110.44 11.7857C110.071 12.1419 109.661 12.4106 109.217 12.5853C108.774 12.7668 108.263 12.8541 107.685 12.8541C107.013 12.8541 106.435 12.7332 105.958 12.4913C105.481 12.2494 105.098 11.9067 104.83 11.4498C104.554 10.9996 104.42 10.462 104.42 9.84383V9.35332C104.42 8.76201 104.534 8.25134 104.769 7.8213C105.004 7.39126 105.327 7.05529 105.743 6.81339C106.16 6.57149 106.644 6.45054 107.195 6.45054C107.746 6.45054 108.223 6.57149 108.633 6.81339C109.043 7.05529 109.365 7.38454 109.6 7.80786C109.835 8.23118 109.943 8.73513 109.93 9.30628L111.186 8.74857H103.882V10.6233H112.873C112.886 10.4889 112.899 10.3411 112.913 10.1798C112.926 10.0253 112.933 9.88415 112.933 9.75648C112.933 8.56715 112.678 7.5458 112.174 6.69244C111.663 5.8458 110.978 5.1873 110.104 4.71694C109.231 4.26675 108.25 4.03157 107.168 4.03157C106.046 4.03157 105.031 4.27346 104.137 4.76398C103.237 5.24777 102.538 5.92643 102.041 6.79323C101.544 7.66003 101.288 8.63434 101.288 9.73632C101.288 10.8383 101.55 11.8126 102.068 12.666C102.585 13.526 103.324 14.198 104.272 14.6885C105.219 15.179 106.321 15.4276 107.584 15.4276C108.579 15.4276 109.466 15.2731 110.232 14.964ZM99.8437 6.90746V4.44145H92.1702V6.90746H99.8437ZM99.4473 15.2529C99.9042 15.1387 100.294 14.964 100.61 14.7288L99.7698 12.4644C99.4137 12.7399 98.9769 12.8743 98.4528 12.8743C98.0429 12.8743 97.7137 12.7466 97.4785 12.4845C97.2366 12.2225 97.1157 11.8596 97.1157 11.396V1.74698H93.8836V11.4565C93.8836 12.7735 94.2465 13.7612 94.9722 14.4264C95.6979 15.0917 96.7125 15.4209 98.0161 15.4209C98.5066 15.4276 98.9837 15.3672 99.4473 15.2529ZM89.1196 14.9707C89.8923 14.6683 90.4904 14.2517 90.9002 13.7276C91.3101 13.1968 91.5184 12.5988 91.5184 11.9268C91.5184 11.2952 91.3975 10.7845 91.1556 10.3881C90.9137 9.99166 90.5912 9.67585 90.188 9.45411C89.7848 9.22565 89.3481 9.05094 88.8844 8.92999C88.4208 8.80905 87.9437 8.70825 87.4666 8.64106C86.9896 8.57387 86.5461 8.50667 86.1496 8.43276C85.7532 8.36557 85.4307 8.25806 85.182 8.11695C84.9334 7.97584 84.8125 7.76754 84.8125 7.49205C84.8125 7.18967 84.9805 6.94106 85.303 6.75292C85.6322 6.55805 86.1698 6.46398 86.9089 6.46398C87.3994 6.46398 87.9168 6.52446 88.4611 6.65212C89.0054 6.77307 89.5362 6.98809 90.0536 7.29047L91.1421 5.00588C90.6046 4.7035 89.9528 4.46833 89.1801 4.29362C88.4074 4.12564 87.6346 4.03829 86.8686 4.03829C85.8002 4.03829 84.8864 4.18611 84.1338 4.48848C83.3813 4.79086 82.7967 5.21418 82.3868 5.75173C81.9769 6.296 81.7686 6.91418 81.7686 7.613C81.7686 8.24462 81.8896 8.75529 82.1315 9.15845C82.3733 9.5549 82.6959 9.87071 83.099 10.0924C83.5022 10.3209 83.9457 10.4956 84.416 10.6166C84.8864 10.7375 85.3635 10.8383 85.8473 10.9055C86.3243 10.9727 86.7611 11.0399 87.1508 11.1138C87.5406 11.181 87.8564 11.2818 88.0983 11.4094C88.3402 11.5371 88.4611 11.7387 88.4611 11.994C88.4611 12.3098 88.3066 12.5585 87.9975 12.7332C87.6884 12.9079 87.1643 13.0019 86.4251 13.0019C85.7532 13.0019 85.0678 12.9011 84.3757 12.7063C83.6836 12.5114 83.0789 12.2561 82.5548 11.9537L81.5065 14.2383C82.0307 14.581 82.7228 14.8632 83.5828 15.0917C84.4496 15.3201 85.35 15.4276 86.2975 15.4276C87.4062 15.4276 88.3469 15.2731 89.1196 14.9707ZM72.9259 12.4241C72.5026 12.1755 72.1599 11.826 71.9046 11.3624C71.6492 10.9055 71.5215 10.3612 71.5215 9.7296C71.5215 9.08454 71.6492 8.53355 71.9046 8.08335C72.1599 7.63315 72.4959 7.28375 72.9259 7.04185C73.3492 6.79995 73.833 6.679 74.3638 6.679C74.9014 6.679 75.3717 6.79995 75.7951 7.04185C76.2117 7.28375 76.5476 7.62643 76.803 8.08335C77.0583 8.53355 77.186 9.08454 77.186 9.7296C77.186 10.3612 77.0583 10.9055 76.803 11.3624C76.5476 11.8193 76.2117 12.1755 75.7951 12.4241C75.3785 12.6727 74.9014 12.7936 74.3638 12.7936C73.833 12.7936 73.3492 12.666 72.9259 12.4241ZM71.5887 19.251V13.0221L71.3804 9.74976L71.4409 6.45726V4.19283H68.3769V19.251H71.5887ZM77.7303 14.7154C78.5567 14.245 79.2152 13.5865 79.7058 12.7399C80.1895 11.8932 80.4382 10.8921 80.4382 9.7296C80.4382 8.58059 80.1963 7.5794 79.7058 6.72604C79.222 5.8794 78.5635 5.21418 77.7303 4.74382C76.8971 4.27346 75.9563 4.03157 74.9014 4.03157C73.954 4.03157 73.1275 4.23987 72.4219 4.64975C71.7164 5.05963 71.1789 5.68453 70.8093 6.52446C70.4397 7.36438 70.2516 8.43276 70.2516 9.73632C70.2516 11.0264 70.4465 12.0881 70.8362 12.9347C71.2259 13.7747 71.7702 14.4063 72.469 14.8162C73.1678 15.2261 73.9741 15.4344 74.8947 15.4344C75.9563 15.4276 76.8971 15.1857 77.7303 14.7154ZM58.7346 12.4241C58.3112 12.1755 57.9686 11.826 57.7132 11.3624C57.4579 10.9055 57.3302 10.3612 57.3302 9.7296C57.3302 9.08454 57.4579 8.53355 57.7132 8.08335C57.9686 7.63315 58.3045 7.28375 58.7346 7.04185C59.1579 6.79995 59.6417 6.679 60.1725 6.679C60.7101 6.679 61.1804 6.79995 61.6037 7.04185C62.0203 7.28375 62.3563 7.62643 62.6117 8.08335C62.867 8.53355 62.9947 9.08454 62.9947 9.7296C62.9947 10.3612 62.867 10.9055 62.6117 11.3624C62.3563 11.8193 62.0203 12.1755 61.6037 12.4241C61.1871 12.6727 60.7101 12.7936 60.1725 12.7936C59.6417 12.7936 59.1579 12.666 58.7346 12.4241ZM57.3974 19.251V13.0221L57.1891 9.74976L57.2496 6.45726V4.19283H54.1856V19.251H57.3974ZM63.5389 14.7154C64.3654 14.245 65.0239 13.5865 65.5144 12.7399C65.9982 11.8932 66.2468 10.8921 66.2468 9.7296C66.2468 8.58059 66.0049 7.5794 65.5144 6.72604C65.0306 5.8794 64.3721 5.21418 63.5389 4.74382C62.7124 4.27346 61.765 4.03157 60.7101 4.03157C59.7626 4.03157 58.9361 4.23987 58.2306 4.64975C57.5251 5.05963 56.9875 5.68453 56.618 6.52446C56.2484 7.36438 56.0603 8.43276 56.0603 9.73632C56.0603 11.0264 56.2551 12.0881 56.6448 12.9347C57.0346 13.7747 57.5788 14.4063 58.2777 14.8162C58.9765 15.2261 59.7828 15.4344 60.7034 15.4344C61.765 15.4276 62.7057 15.1857 63.5389 14.7154ZM47.2982 14.8565C47.9164 14.4802 48.3397 13.9494 48.5749 13.264L48.0844 11.7656C47.9029 12.2695 47.6006 12.6525 47.1705 12.8944C46.7405 13.143 46.25 13.264 45.699 13.264C45.148 13.264 44.7179 13.143 44.3954 12.9011C44.0729 12.6593 43.9116 12.3367 43.9116 11.9268C43.9116 11.5573 44.0527 11.2482 44.3349 10.9996C44.6172 10.7509 45.1345 10.63 45.8871 10.63H48.4808V8.78217H45.5579C44.4223 8.78217 43.5017 8.91656 42.8029 9.19205C42.1041 9.46754 41.5934 9.85055 41.2709 10.3545C40.9484 10.8585 40.7871 11.4296 40.7871 12.0747C40.7871 12.7063 40.9551 13.2774 41.2911 13.7814C41.627 14.2853 42.1041 14.6885 42.7223 14.9842C43.3405 15.2798 44.0729 15.4276 44.9195 15.4276C45.8871 15.4276 46.6867 15.2328 47.2982 14.8565ZM51.2895 15.2596V8.94343C51.2895 7.25687 50.8259 6.01378 49.8919 5.2209C48.9579 4.42801 47.6476 4.03157 45.961 4.03157C45.0808 4.03157 44.2207 4.1458 43.3673 4.36754C42.514 4.59599 41.7883 4.92524 41.1903 5.362L42.3191 7.60628C42.729 7.29047 43.2195 7.04185 43.7907 6.85371C44.3618 6.66556 44.9397 6.57821 45.531 6.57821C46.3978 6.57821 47.0361 6.77307 47.4527 7.15608C47.8693 7.53908 48.0776 8.07663 48.0776 8.76201V12.6257L48.2859 13.096V15.2529H51.2895V15.2596Z" fill="black"/>
<path d="M142.767 29.6795L139.568 22.1941H137.472L141.383 31.1712L142.767 29.6795ZM140.939 33.8858C141.342 33.7313 141.712 33.4625 142.041 33.093C142.37 32.7234 142.673 32.2127 142.941 31.5744L147 22.1941H145.051L141.786 29.8542L141.591 30.1163L141.1 31.2182C140.905 31.6617 140.697 31.9775 140.469 32.159C140.24 32.3404 139.945 32.4345 139.575 32.4345C139.293 32.4345 139.024 32.3807 138.769 32.2732C138.513 32.1657 138.285 32.0246 138.077 31.8499L137.284 33.3281C137.552 33.5767 137.902 33.7716 138.325 33.9127C138.749 34.0538 139.172 34.121 139.609 34.121C140.092 34.121 140.536 34.0471 140.939 33.8858ZM130.638 22.6779C129.986 23.0811 129.53 23.5985 129.261 24.2368L130.04 24.5257C129.845 23.6925 129.449 23.0744 128.858 22.6779C128.266 22.2815 127.561 22.0799 126.748 22.0799C126.022 22.0799 125.384 22.2344 124.826 22.5368C124.268 22.8392 123.845 23.2692 123.549 23.8202L123.905 24.519V22.2008H121.977V30.8688H123.993V26.4676C123.993 25.8965 124.087 25.4127 124.275 25.0297C124.463 24.6467 124.732 24.3578 125.068 24.1629C125.404 23.968 125.8 23.874 126.244 23.874C126.869 23.874 127.352 24.0621 127.695 24.4451C128.038 24.8281 128.206 25.3993 128.206 26.1653V30.8756H130.222V26.4744C130.222 25.9032 130.316 25.4194 130.504 25.0364C130.692 24.6534 130.961 24.3645 131.297 24.1696C131.633 23.9748 132.029 23.8807 132.473 23.8807C133.098 23.8807 133.581 24.0688 133.924 24.4518C134.267 24.8348 134.435 25.406 134.435 26.172V30.8823H136.45V25.9167C136.45 25.0431 136.296 24.3174 135.994 23.7597C135.691 23.1953 135.268 22.7787 134.737 22.5099C134.199 22.2412 133.588 22.1068 132.896 22.1068C132.043 22.0799 131.29 22.2815 130.638 22.6779ZM117.952 30.6202C118.543 30.385 119.034 30.0356 119.437 29.5787L118.335 28.3155C118.033 28.6313 117.683 28.8665 117.294 29.0277C116.904 29.189 116.467 29.2696 115.977 29.2696C115.405 29.2696 114.901 29.1554 114.465 28.9337C114.035 28.7119 113.699 28.4028 113.463 27.9997C113.228 27.5965 113.114 27.1396 113.114 26.6222V26.2997C113.114 25.789 113.215 25.3388 113.423 24.9491C113.631 24.5593 113.927 24.257 114.31 24.0487C114.693 23.8404 115.13 23.7329 115.614 23.7329C116.111 23.7329 116.541 23.8404 116.911 24.0487C117.28 24.257 117.569 24.5593 117.777 24.9423C117.986 25.3253 118.086 25.7621 118.08 26.2459L118.893 25.8226H112.738V27.1665H119.961C119.975 27.0791 119.981 26.9783 119.988 26.8641C119.995 26.7499 119.995 26.6558 119.995 26.5819C119.995 25.6613 119.807 24.8684 119.424 24.1965C119.047 23.5246 118.523 23.0004 117.865 22.6309C117.206 22.2546 116.454 22.0732 115.607 22.0732C114.74 22.0732 113.967 22.268 113.295 22.651C112.617 23.034 112.086 23.5582 111.703 24.2234C111.32 24.8886 111.125 25.6546 111.125 26.5214C111.125 27.3882 111.32 28.1542 111.716 28.8194C112.113 29.4846 112.671 30.0088 113.39 30.3918C114.109 30.7748 114.948 30.9696 115.916 30.9696C116.689 30.9763 117.367 30.8554 117.952 30.6202ZM109.197 30.8621V18.8143H107.154V24.2032L107.315 26.508L107.268 28.8127V30.8554H109.197V30.8621ZM103.311 28.9202C102.927 28.6985 102.618 28.3759 102.383 27.9593C102.148 27.5427 102.034 27.0657 102.034 26.5214C102.034 25.9704 102.148 25.4933 102.383 25.0835C102.618 24.6803 102.927 24.3645 103.311 24.1427C103.694 23.921 104.13 23.8068 104.614 23.8068C105.098 23.8068 105.535 23.921 105.918 24.1427C106.301 24.3645 106.61 24.6803 106.845 25.0835C107.08 25.4866 107.194 25.9704 107.194 26.5214C107.194 27.0657 107.08 27.5427 106.845 27.9593C106.61 28.3759 106.301 28.6985 105.918 28.9202C105.535 29.142 105.098 29.2562 104.614 29.2562C104.13 29.2562 103.694 29.142 103.311 28.9202ZM106.368 30.4926C106.939 30.1767 107.382 29.6862 107.705 29.021C108.028 28.3625 108.195 27.5293 108.195 26.5214C108.195 25.5068 108.028 24.6669 107.692 24.0151C107.356 23.3633 106.899 22.8728 106.327 22.557C105.756 22.2412 105.105 22.0799 104.379 22.0799C103.546 22.0799 102.793 22.2613 102.128 22.6309C101.463 23.0004 100.939 23.5178 100.562 24.1898C100.186 24.8617 99.9911 25.6412 99.9911 26.5281C99.9911 27.4285 100.179 28.208 100.562 28.8732C100.939 29.5384 101.463 30.0558 102.128 30.4254C102.793 30.7949 103.546 30.9763 104.379 30.9763C105.131 30.9763 105.797 30.8151 106.368 30.4926ZM95.3682 30.553C95.8654 30.2708 96.2148 29.8744 96.4097 29.3704L96.0872 28.1542C95.9057 28.5977 95.6168 28.9337 95.2204 29.1621C94.8239 29.3906 94.3804 29.5048 93.8832 29.5048C93.3658 29.5048 92.9559 29.3973 92.667 29.1823C92.3781 28.9673 92.2302 28.6783 92.2302 28.3222C92.2302 27.9862 92.3512 27.7107 92.5931 27.489C92.835 27.2673 93.2986 27.153 93.984 27.153H96.3559V25.8091H93.8429C92.9694 25.8091 92.2638 25.9234 91.733 26.1518C91.2022 26.3803 90.8192 26.6894 90.5907 27.0791C90.3555 27.4688 90.2413 27.9056 90.2413 28.3961C90.2413 28.8933 90.3757 29.3435 90.6378 29.7333C90.8998 30.1297 91.2761 30.4388 91.7666 30.6605C92.2504 30.8823 92.8216 30.9965 93.4733 30.9965C94.2326 30.9763 94.871 30.8352 95.3682 30.553ZM98.0963 30.8621V25.7823C98.0963 24.5257 97.7536 23.5985 97.0749 22.987C96.3963 22.3823 95.4219 22.0799 94.152 22.0799C93.4599 22.0799 92.7947 22.174 92.1563 22.3554C91.518 22.5368 90.9603 22.8123 90.4832 23.1684L91.2761 24.6467C91.6121 24.3779 92.0152 24.1629 92.4789 24.0151C92.9425 23.8672 93.4129 23.7866 93.8899 23.7866C94.6223 23.7866 95.1733 23.9546 95.5362 24.2838C95.899 24.6131 96.0804 25.0767 96.0804 25.6748V28.7455L96.1812 29.1016V30.8688H98.0963V30.8621ZM87.6073 30.4455C88.2591 30.0961 88.7429 29.5922 89.0654 28.9471L87.5267 28.04C87.2646 28.4499 86.9488 28.759 86.5792 28.9538C86.203 29.1554 85.7998 29.2562 85.3697 29.2562C84.8725 29.2562 84.4223 29.142 84.0259 28.9202C83.6227 28.6985 83.3136 28.3827 83.0852 27.9728C82.8567 27.5629 82.7425 27.0791 82.7425 26.5281C82.7425 25.9771 82.8567 25.5001 83.0852 25.0902C83.3136 24.687 83.6294 24.3712 84.0259 24.1495C84.429 23.9277 84.8725 23.8135 85.3697 23.8135C85.7998 23.8135 86.203 23.9143 86.5792 24.1159C86.9555 24.3174 87.2713 24.6198 87.5267 25.0163L89.0654 24.1091C88.7429 23.4506 88.2524 22.9467 87.6073 22.5973C86.9555 22.2546 86.2164 22.0799 85.3832 22.0799C84.4761 22.0799 83.663 22.2748 82.9575 22.6578C82.2452 23.0408 81.6943 23.5649 81.2911 24.2234C80.8879 24.8819 80.6931 25.6546 80.6931 26.5281C80.6931 27.3949 80.8946 28.1609 81.2911 28.8261C81.6943 29.4914 82.2452 30.0155 82.9575 30.3985C83.663 30.7815 84.4761 30.9763 85.3832 30.9763C86.2164 30.9763 86.9555 30.8016 87.6073 30.4455ZM76.0634 30.553C76.5606 30.2708 76.9101 29.8744 77.1049 29.3704L76.7824 28.1542C76.601 28.5977 76.312 28.9337 75.9156 29.1621C75.5191 29.3906 75.0757 29.5048 74.5784 29.5048C74.061 29.5048 73.6512 29.3973 73.3622 29.1823C73.0733 28.9673 72.9255 28.6783 72.9255 28.3222C72.9255 27.9862 73.0464 27.7107 73.2883 27.489C73.5302 27.2673 73.9938 27.153 74.6792 27.153H77.0512V25.8091H74.5381C73.6646 25.8091 72.9591 25.9234 72.4282 26.1518C71.8974 26.3803 71.5144 26.6894 71.2859 27.0791C71.0508 27.4688 70.9365 27.9056 70.9365 28.3961C70.9365 28.8933 71.0709 29.3435 71.333 29.7333C71.595 30.1297 71.9713 30.4388 72.4618 30.6605C72.9456 30.8823 73.5168 30.9965 74.1685 30.9965C74.9278 30.9763 75.5662 30.8352 76.0634 30.553ZM78.7915 30.8621V25.7823C78.7915 24.5257 78.4488 23.5985 77.7701 22.987C77.0915 22.3823 76.1172 22.0799 74.8472 22.0799C74.1551 22.0799 73.4899 22.174 72.8516 22.3554C72.2132 22.5368 71.6555 22.8123 71.1784 23.1684L71.9713 24.6467C72.3073 24.3779 72.7104 24.1629 73.1741 24.0151C73.6377 23.8672 74.1081 23.7866 74.5852 23.7866C75.3176 23.7866 75.8686 23.9546 76.2314 24.2838C76.5942 24.6131 76.7757 25.0767 76.7757 25.6748V28.7455L76.8765 29.1016V30.8688H78.7915V30.8621Z" fill="black"/>
<mask id="mask0_666_264" style="mask-type:luminance" maskUnits="userSpaceOnUse" x="20" y="6" width="16" height="12">
<path d="M20.3799 14.1039C24.4585 18.1826 31.0704 18.1826 35.1424 14.1039L27.7578 6.7193L20.3799 14.1039Z" fill="white"/>
</mask>
<g mask="url(#mask0_666_264)">
<path d="M35.1425 18.243L35.1896 6.72594L20.38 6.65875L20.333 18.1825L35.1425 18.243Z" fill="#555390"/>
</g>
<mask id="mask1_666_264" style="mask-type:luminance" maskUnits="userSpaceOnUse" x="10" y="1" width="16" height="11">
<path d="M25.1113 4.40276C21.0327 0.324099 14.4208 0.3241 10.3488 4.40276L17.7334 11.7874L25.1113 4.40276Z" fill="white"/>
</mask>
<g mask="url(#mask1_666_264)">
<path d="M10.3477 0.263698L10.3007 11.7807L25.1102 11.8479L25.1572 0.324169L10.3477 0.263698Z" fill="#8B8CD1"/>
</g>
<path d="M0 14.1039C4.07866 18.1826 10.6905 18.1826 14.7625 14.1039L7.37788 6.7193L0 14.1039Z" fill="#D8D8F4"/>
</svg>
